<svg width="800" height="600" xmlns="http://www.w3.org/2000/svg">
  <!-- Background -->
  <rect width="800" height="600" fill="#0F172A" />
  
  <!-- Define gradients and filters -->
  <defs>
    <linearGradient id="modernGrad" x1="0%" y1="0%" x2="100%" y2="100%">
      <stop offset="0%" style="stop-color:#3B82F6;stop-opacity:1" />
      <stop offset="100%" style="stop-color:#10B981;stop-opacity:1" />
    </linearGradient>
    
    <linearGradient id="glassGrad" x1="0%" y1="0%" x2="100%" y2="100%">
      <stop offset="0%" style="stop-color:#ffffff;stop-opacity:0.1" />
      <stop offset="100%" style="stop-color:#ffffff;stop-opacity:0.05" />
    </linearGradient>
    
    <filter id="glow" x="-20%" y="-20%" width="140%" height="140%">
      <feGaussianBlur stdDeviation="8" result="blur" />
      <feComposite in="SourceGraphic" in2="blur" operator="over" />
    </filter>
    
    <filter id="softShadow" x="-10%" y="-10%" width="120%" height="130%">
      <feDropShadow dx="0" dy="10" stdDeviation="15" flood-color="#000" flood-opacity="0.2" />
    </filter>
  </defs>
  
  <!-- Glass card background -->
  <rect x="100" y="150" width="600" height="350" rx="30" fill="url(#glassGrad)" stroke="rgba(255,255,255,0.1)" stroke-width="1" filter="url(#softShadow)" />
  
  <!-- Modern magnifying glass -->
  <circle cx="300" cy="280" r="100" fill="none" stroke="url(#modernGrad)" stroke-width="4" opacity="0.9" />
  <line x1="370" y1="350" x2="450" y2="430" stroke="url(#modernGrad)" stroke-width="6" stroke-linecap="round" filter="url(#glow)" />
  
  <!-- Data visualization elements - 3D floating bars -->
  <g transform="skewX(-10)">
    <rect x="500" y="180" width="180" height="15" rx="7.5" fill="#3B82F6" opacity="0.9" />
    <rect x="500" y="210" width="140" height="15" rx="7.5" fill="#10B981" opacity="0.9" />
    <rect x="500" y="240" width="200" height="15" rx="7.5" fill="#8B5CF6" opacity="0.9" />
    <rect x="500" y="270" width="120" height="15" rx="7.5" fill="#F59E0B" opacity="0.9" />
    <rect x="500" y="300" width="160" height="15" rx="7.5" fill="#EC4899" opacity="0.9" />
  </g>
  
  <!-- Abstract data network in magnifying glass -->
  <g filter="url(#glow)">
    <circle cx="260" cy="250" r="8" fill="#3B82F6" />
    <circle cx="290" cy="310" r="6" fill="#10B981" />
    <circle cx="330" cy="270" r="10" fill="#8B5CF6" />
    <circle cx="280" cy="230" r="5" fill="#F59E0B" />
    <circle cx="310" cy="290" r="7" fill="#EC4899" />
    <circle cx="350" cy="240" r="6" fill="#3B82F6" />
    <circle cx="270" cy="280" r="8" fill="#10B981" />
  </g>
  
  <!-- Connection lines between data points - animated feel -->
  <g opacity="0.7">
    <line x1="260" y1="250" x2="290" y2="310" stroke="#3B82F6" stroke-width="1.5" />
    <line x1="290" y1="310" x2="330" y2="270" stroke="#10B981" stroke-width="1.5" />
    <line x1="330" y1="270" x2="280" y2="230" stroke="#8B5CF6" stroke-width="1.5" />
    <line x1="280" y1="230" x2="310" y2="290" stroke="#F59E0B" stroke-width="1.5" />
    <line x1="310" y1="290" x2="260" y2="250" stroke="#EC4899" stroke-width="1.5" />
    <line x1="350" y1="240" x2="280" y2="230" stroke="#3B82F6" stroke-width="1.5" />
    <line x1="350" y1="240" x2="330" y2="270" stroke="#10B981" stroke-width="1.5" />
    <line x1="270" y1="280" x2="290" y2="310" stroke="#8B5CF6" stroke-width="1.5" />
    <line x1="270" y1="280" x2="260" y2="250" stroke="#F59E0B" stroke-width="1.5" />
  </g>
  
  <!-- Subtle accent elements -->
  <circle cx="150" cy="150" r="20" fill="none" stroke="#3B82F6" stroke-width="2" opacity="0.3" />
  <circle cx="650" cy="450" r="30" fill="none" stroke="#10B981" stroke-width="2" opacity="0.3" />
  <circle cx="200" cy="500" r="15" fill="none" stroke="#8B5CF6" stroke-width="2" opacity="0.3" />
  
  <!-- Abstract geometric shapes -->
  <path d="M700,100 L720,130 L680,130 Z" fill="#3B82F6" opacity="0.5" />
  <path d="M100,400 L130,430 L100,460 Z" fill="#10B981" opacity="0.5" />
</svg>