<svg width="1920" height="1080" viewBox="0 0 1920 1080" xmlns="http://www.w3.org/2000/svg">
  <!-- Background gradient -->
  <defs>
    <linearGradient id="bg-gradient" x1="0%" y1="0%" x2="100%" y2="100%">
      <stop offset="0%" stop-color="#f8f9fa" stop-opacity="0.8" />
      <stop offset="100%" stop-color="#ffffff" stop-opacity="0.9" />
    </linearGradient>
    
    <!-- Dot pattern -->
    <pattern id="dot-pattern" x="0" y="0" width="40" height="40" patternUnits="userSpaceOnUse">
      <circle cx="20" cy="20" r="1" fill="#6200EA" opacity="0.2" />
    </pattern>
    
    <!-- Line pattern -->
    <pattern id="line-pattern" x="0" y="0" width="100" height="100" patternUnits="userSpaceOnUse">
      <line x1="0" y1="0" x2="100" y2="100" stroke="#00E5FF" stroke-width="0.5" opacity="0.1" />
    </pattern>
    
    <!-- Subtle grid pattern -->
    <pattern id="grid-pattern" x="0" y="0" width="80" height="80" patternUnits="userSpaceOnUse">
      <path d="M 80 0 L 0 0 0 80" fill="none" stroke="#6200EA" stroke-width="0.3" opacity="0.05" />
    </pattern>
  </defs>
  
  <!-- Base background with gradient -->
  <rect width="100%" height="100%" fill="url(#bg-gradient)" />
  
  <!-- Decorative patterns -->
  <rect width="100%" height="100%" fill="url(#dot-pattern)" />
  <rect width="100%" height="100%" fill="url(#line-pattern)" />
  <rect width="100%" height="100%" fill="url(#grid-pattern)" />
  
  <!-- Abstract shapes -->
  <circle cx="0" cy="0" r="400" fill="#6200EA" opacity="0.03" />
  <circle cx="1920" cy="1080" r="500" fill="#00E5FF" opacity="0.03" />
  
  <!-- Flowing lines -->
  <path d="M0,400 Q480,350 960,540 T1920,450" stroke="#6200EA" stroke-width="1" fill="none" opacity="0.07" />
  <path d="M0,600 Q480,750 960,650 T1920,800" stroke="#00E5FF" stroke-width="1" fill="none" opacity="0.07" />
  
  <!-- Modern geometric elements -->
  <rect x="-100" y="-100" width="300" height="300" transform="rotate(45)" fill="#6200EA" opacity="0.02" />
  <rect x="1800" y="900" width="400" height="400" transform="rotate(45)" fill="#00E5FF" opacity="0.02" />
</svg>