<svg width="800" height="600" xmlns="http://www.w3.org/2000/svg">
  <!-- Background -->
  <rect width="800" height="600" fill="#0F172A" />
  
  <!-- Define gradients and filters -->
  <defs>
    <linearGradient id="modernGrad" x1="0%" y1="0%" x2="100%" y2="100%">
      <stop offset="0%" style="stop-color:#3B82F6;stop-opacity:1" />
      <stop offset="100%" style="stop-color:#10B981;stop-opacity:1" />
    </linearGradient>
    
    <linearGradient id="accentGrad" x1="0%" y1="0%" x2="100%" y2="100%">
      <stop offset="0%" style="stop-color:#8B5CF6;stop-opacity:1" />
      <stop offset="100%" style="stop-color:#EC4899;stop-opacity:1" />
    </linearGradient>
    
    <linearGradient id="chartGrad" x1="0%" y1="0%" x2="0%" y2="100%">
      <stop offset="0%" style="stop-color:#60A5FA;stop-opacity:1" />
      <stop offset="100%" style="stop-color:#3B82F6;stop-opacity:0.6" />
    </linearGradient>
    
    <linearGradient id="glassGrad" x1="0%" y1="0%" x2="100%" y2="100%">
      <stop offset="0%" style="stop-color:#ffffff;stop-opacity:0.1" />
      <stop offset="100%" style="stop-color:#ffffff;stop-opacity:0.05" />
    </linearGradient>
    
    <filter id="glow" x="-20%" y="-20%" width="140%" height="140%">
      <feGaussianBlur stdDeviation="5" result="blur" />
      <feComposite in="SourceGraphic" in2="blur" operator="over" />
    </filter>
    
    <filter id="softShadow" x="-10%" y="-10%" width="120%" height="130%">
      <feDropShadow dx="0" dy="10" stdDeviation="15" flood-color="#000" flood-opacity="0.2" />
    </filter>
    
    <filter id="neonGlow" x="-20%" y="-20%" width="140%" height="140%">
      <feGaussianBlur stdDeviation="2" result="blur" />
      <feFlood flood-color="#8B5CF6" flood-opacity="0.5" result="color" />
      <feComposite in="color" in2="blur" operator="in" result="glow" />
      <feComposite in="SourceGraphic" in2="glow" operator="over" />
    </filter>
    
    <filter id="trendGlow">
      <feGaussianBlur stdDeviation="2" result="blur" />
      <feFlood flood-color="#10B981" flood-opacity="0.8" result="color" />
      <feComposite in="color" in2="blur" operator="in" result="glow" />
      <feComposite in="SourceGraphic" in2="glow" operator="over" />
    </filter>
  </defs>
  
  <!-- Modern Support Center with Glass Morphism -->
  <circle cx="400" cy="300" r="150" fill="rgba(30, 41, 59, 0.8)" stroke="url(#modernGrad)" stroke-width="2" filter="url(#softShadow)" />
  
  <!-- Modern Customer Support Icon -->
  <circle cx="300" cy="250" r="50" fill="rgba(30, 41, 59, 0.8)" stroke="rgba(255,255,255,0.1)" stroke-width="1" filter="url(#softShadow)" />
  <circle cx="300" cy="230" r="15" fill="#8B5CF6" opacity="0.9" filter="url(#glow)" />
  <path d="M270,280 C270,260 280,250 300,250 C320,250 330,260 330,280" stroke="url(#accentGrad)" stroke-width="2" fill="none" filter="url(#glow)" />
  <path d="M280,250 L280,270 M320,250 L320,270" stroke="#8B5CF6" stroke-width="2" />
  
  <!-- Modern Headset -->
  <path d="M270,230 C270,210 280,190 300,190 C320,190 330,210 330,230" stroke="#8B5CF6" stroke-width="2" fill="none" filter="url(#glow)" />
  <rect x="260" y="230" width="10" height="30" rx="5" fill="rgba(30, 41, 59, 0.8)" stroke="#8B5CF6" stroke-width="1" />
  <rect x="330" y="230" width="10" height="30" rx="5" fill="rgba(30, 41, 59, 0.8)" stroke="#8B5CF6" stroke-width="1" />
  
  <!-- Modern Analytics/Optimization Icon with Glass Morphism -->
  <rect x="400" y="250" width="100" height="80" rx="15" fill="rgba(30, 41, 59, 0.8)" stroke="rgba(255,255,255,0.1)" stroke-width="1" filter="url(#softShadow)" />
  
  <!-- Modern Chart Bars -->
  <rect x="410" y="290" width="10" height="30" rx="5" fill="url(#chartGrad)" />
  <rect x="430" y="270" width="10" height="50" rx="5" fill="url(#chartGrad)" />
  <rect x="450" y="260" width="10" height="60" rx="5" fill="url(#chartGrad)" />
  <rect x="470" y="280" width="10" height="40" rx="5" fill="url(#chartGrad)" />
  <rect x="490" y="265" width="10" height="55" rx="5" fill="url(#chartGrad)" />
  
  <!-- Modern Trend Line with Animation -->
  <path d="M410,280 L430,260 L450,270 L470,250 L490,240" stroke="#10B981" stroke-width="2" fill="none" filter="url(#trendGlow)">
    <animate attributeName="opacity" values="0.7;1;0.7" dur="3s" repeatCount="indefinite" />
  </path>
  <circle cx="410" cy="280" r="4" fill="#10B981" filter="url(#glow)" />
  <circle cx="430" cy="260" r="4" fill="#10B981" filter="url(#glow)" />
  <circle cx="450" cy="270" r="4" fill="#10B981" filter="url(#glow)" />
  <circle cx="470" cy="250" r="4" fill="#10B981" filter="url(#glow)" />
  <circle cx="490" cy="240" r="4" fill="#10B981" filter="url(#glow)" />
  
  <!-- Modern Maintenance/Updates Icon with Glass Morphism -->
  <circle cx="300" cy="350" r="40" fill="rgba(30, 41, 59, 0.8)" stroke="rgba(255,255,255,0.1)" stroke-width="1" filter="url(#softShadow)" />
  
  <!-- Modern Gear Icon with Animation -->
  <g transform="translate(300, 350)">
    <circle cx="0" cy="0" r="20" fill="none" stroke="#3B82F6" stroke-width="2">
      <animate attributeName="stroke-dasharray" values="0,0;0,0;126,0" dur="3s" repeatCount="indefinite" />
    </circle>
    <circle cx="0" cy="0" r="10" fill="none" stroke="#3B82F6" stroke-width="2" />
    
    <!-- Gear Teeth with Animation -->
    <g>
      <animateTransform attributeName="transform" type="rotate" from="0" to="360" dur="20s" repeatCount="indefinite" />
      <path d="M0,-30 L0,-20 M0,20 L0,30 M-30,0 L-20,0 M20,0 L30,0 M-21,-21 L-14,-14 M21,-21 L14,-14 M-21,21 L-14,14 M21,21 L14,14" stroke="#3B82F6" stroke-width="2" filter="url(#glow)" />
    </g>
  </g>
  
  <!-- Modern Performance Optimization with Glass Morphism -->
  <circle cx="500" cy="350" r="40" fill="rgba(30, 41, 59, 0.8)" stroke="rgba(255,255,255,0.1)" stroke-width="1" filter="url(#softShadow)" />
  
  <!-- Modern Speedometer with Animation -->
  <g transform="translate(500, 350)">
    <path d="M0,0 L0,-30" stroke="#EC4899" stroke-width="2">
      <animateTransform attributeName="transform" type="rotate" values="-30;30;-30" dur="4s" repeatCount="indefinite" />
    </path>
    <path d="M-30,0 A30,30 0 0,1 30,0" stroke="#EC4899" stroke-width="2" fill="none" filter="url(#glow)" />
    <path d="M-25,-5 L-15,5 M15,5 L25,-5" stroke="#EC4899" stroke-width="1" />
    <circle cx="0" cy="0" r="5" fill="#EC4899" filter="url(#glow)" />
  </g>
  
  <!-- Connection Lines -->
  <path d="M350,250 L400,290" stroke="url(#modernGrad)" stroke-width="1" stroke-dasharray="5,5" opacity="0.7" />
  <path d="M350,350 L400,310" stroke="url(#modernGrad)" stroke-width="1" stroke-dasharray="5,5" opacity="0.7" />
  <path d="M450,350 L500,310" stroke="url(#modernGrad)" stroke-width="1" stroke-dasharray="5,5" opacity="0.7" />

  
  <!-- Modern Decorative Elements -->
  <circle cx="150" cy="150" r="20" fill="none" stroke="url(#modernGrad)" stroke-width="2" opacity="0.6" />
  <circle cx="650" cy="450" r="25" fill="none" stroke="url(#accentGrad)" stroke-width="2" opacity="0.6" />
  
  <!-- Abstract Support Elements -->
  <g opacity="0.3">
    <path d="M100,250 L130,250" stroke="#38bdf8" stroke-width="2" />
    <path d="M100,270 L120,270" stroke="#38bdf8" stroke-width="2" />
    <path d="M100,290 L125,290" stroke="#38bdf8" stroke-width="2" />
    
    <path d="M670,400 L700,400" stroke="#f472b6" stroke-width="2" />
    <path d="M680,420 L710,420" stroke="#f472b6" stroke-width="2" />
    <path d="M675,440 L705,440" stroke="#f472b6" stroke-width="2" />
  </g>
  
  <!-- Connection Lines -->
  <path d="M200,500 C300,480 500,520 600,500" stroke="url(#modernGrad)" stroke-width="1" opacity="0.3" fill="none" />
  <path d="M150,450 C250,470 550,430 650,450" stroke="url(#accentGrad)" stroke-width="1" opacity="0.3" fill="none" />
</svg>